<mxfile host="app.diagrams.net" modified="2023-11-24T22:18:06.506Z" agent="Mozilla/5.0 (Macintosh; Intel Mac OS X 10_15_7) AppleWebKit/537.36 (KHTML, like Gecko) Chrome/119.0.0.0 Safari/537.36 Edg/119.0.0.0" etag="PHXTGZRZla4Ts87T-eE_" version="22.1.4" type="device">
  <diagram name="Page-1" id="xC2R9EfI725YvGiksnvJ">
    <mxGraphModel dx="2954" dy="1156" grid="1" gridSize="10" guides="1" tooltips="1" connect="1" arrows="1" fold="1" page="1" pageScale="1" pageWidth="827" pageHeight="1169" math="0" shadow="0">
      <root>
        <mxCell id="0" />
        <mxCell id="1" parent="0" />
        <mxCell id="q6GI-S40e6Szn5kQjJgA-5" style="edgeStyle=orthogonalEdgeStyle;rounded=0;orthogonalLoop=1;jettySize=auto;html=1;" edge="1" parent="1" source="q6GI-S40e6Szn5kQjJgA-1" target="q6GI-S40e6Szn5kQjJgA-4">
          <mxGeometry relative="1" as="geometry" />
        </mxCell>
        <mxCell id="q6GI-S40e6Szn5kQjJgA-1" value="FUNCTION" style="rounded=0;whiteSpace=wrap;html=1;" vertex="1" parent="1">
          <mxGeometry x="280" y="280" width="200" height="160" as="geometry" />
        </mxCell>
        <mxCell id="q6GI-S40e6Szn5kQjJgA-3" style="edgeStyle=orthogonalEdgeStyle;rounded=0;orthogonalLoop=1;jettySize=auto;html=1;" edge="1" parent="1" source="q6GI-S40e6Szn5kQjJgA-2" target="q6GI-S40e6Szn5kQjJgA-1">
          <mxGeometry relative="1" as="geometry" />
        </mxCell>
        <mxCell id="q6GI-S40e6Szn5kQjJgA-2" value="INPUTS" style="ellipse;whiteSpace=wrap;html=1;aspect=fixed;" vertex="1" parent="1">
          <mxGeometry x="40" y="280" width="160" height="160" as="geometry" />
        </mxCell>
        <mxCell id="q6GI-S40e6Szn5kQjJgA-4" value="OUTPUT" style="ellipse;whiteSpace=wrap;html=1;aspect=fixed;" vertex="1" parent="1">
          <mxGeometry x="560" y="280" width="160" height="160" as="geometry" />
        </mxCell>
      </root>
    </mxGraphModel>
  </diagram>
</mxfile>
